<svg version="1.1" id="Layer_1" xmlns="http://www.w3.org/2000/svg" xmlns:xlink="http://www.w3.org/1999/xlink" x="0px" y="0px"
	 width="100%" viewBox="0 0 1024 1024" enable-background="new 0 0 1024 1024" xml:space="preserve">
<path fill="#000000" opacity="1.000000" stroke="none" 
	d="
M302.964813,497.283447 
	C312.958679,455.981262 344.236023,427.372559 385.671936,423.011902 
	C416.855316,419.730225 444.740112,428.507294 467.857330,450.325317 
	C475.972595,457.984497 483.653595,466.103302 491.551514,473.993622 
	C492.911072,475.351837 494.364197,476.616455 495.890350,478.032166 
	C497.104095,475.989532 496.640259,474.296600 496.645477,472.697083 
	C496.694946,457.533447 496.773865,442.368683 496.623901,427.206451 
	C496.586029,423.374817 497.810150,421.788605 501.758698,421.858490 
	C509.420013,421.994171 517.088257,421.852112 524.751526,421.708801 
	C527.922607,421.649536 529.261780,422.970154 529.246826,426.157623 
	C529.187500,438.821503 529.211548,451.486023 529.274536,464.149963 
	C529.286194,466.495026 528.407349,468.278717 526.816895,469.920135 
	C513.600403,483.560516 500.355072,497.174072 487.270386,510.940155 
	C484.370941,513.990601 482.983978,511.651428 481.295197,509.924225 
	C469.646759,498.010590 458.165558,485.929962 446.368317,474.165985 
	C425.180634,453.038147 391.612640,448.080292 365.575867,462.438171 
	C348.212830,472.013000 337.728577,487.054596 333.969971,506.408905 
	C328.669586,533.702576 335.826691,557.090576 358.095490,574.502747 
	C384.207062,594.919617 422.118774,591.586975 446.387329,566.854065 
	C467.039246,545.807068 487.167145,524.246216 507.557953,502.942444 
	C523.570679,486.212799 539.551025,469.450897 555.690247,452.843781 
	C575.386719,432.576355 599.701843,422.560333 627.735107,422.227661 
	C649.100098,421.974121 668.801270,428.109100 686.271545,440.751068 
	C687.983887,441.990143 689.488586,443.660706 692.151733,443.910858 
	C693.260681,438.816895 692.559448,433.689240 692.679993,428.619110 
	C692.835327,422.085785 692.759338,422.054321 699.488892,421.964325 
	C705.987000,421.877441 712.500183,422.071198 718.979187,421.682129 
	C723.830811,421.390778 725.297546,423.186951 725.270813,427.960022 
	C725.106445,457.286774 725.202942,486.615021 725.202637,515.942749 
	C725.202271,548.269836 725.197327,580.596985 725.179993,612.924072 
	C725.176270,619.846436 724.969238,620.043640 718.264343,620.052002 
	C711.765686,620.060120 705.252869,619.770996 698.772949,620.114807 
	C693.843018,620.376404 692.323425,618.457397 692.608215,613.747131 
	C692.935791,608.329834 692.684265,602.877563 692.684265,597.487244 
	C690.549866,597.214539 689.746338,598.441956 688.735779,599.205627 
	C649.225281,629.061707 594.041260,626.060303 558.145203,591.958130 
	C550.175110,584.386292 542.582092,576.417908 534.801758,568.645752 
	C533.302979,567.148560 531.740234,565.715393 530.111633,564.161743 
	C528.782349,566.004333 529.306702,567.711914 529.300049,569.290161 
	C529.236877,584.287109 529.136414,599.285339 529.292480,614.280701 
	C529.337524,618.611450 527.753967,620.271179 523.445374,620.133484 
	C516.286499,619.904724 509.112549,619.862732 501.953003,620.049927 
	C497.742188,620.159912 496.539764,618.405518 496.604095,614.390930 
	C496.798859,602.229736 496.739136,590.062805 496.624786,577.899475 
	C496.597534,575.000854 497.573120,572.904663 499.571930,570.845093 
	C512.219055,557.813354 524.838013,544.751709 537.264526,531.510620 
	C539.893799,528.708923 541.615295,528.764099 544.128723,531.378235 
	C555.099609,542.788391 566.198059,554.075867 577.198242,565.458008 
	C591.633423,580.394348 609.248047,587.878418 629.972351,587.616760 
	C664.505859,587.180786 693.078064,557.937195 693.787476,523.407654 
	C694.488342,489.296722 673.632751,464.284485 646.624634,457.074097 
	C621.131897,450.268219 598.016785,455.537231 579.475464,474.511383 
	C546.526001,508.230194 514.267578,542.624756 481.756989,576.771667 
	C469.788910,589.342224 457.734253,601.627075 441.764771,609.452515 
	C402.393585,628.745361 355.573853,620.723999 325.773468,588.597778 
	C309.519470,571.075256 301.551910,549.849609 300.684570,525.986694 
	C300.339111,516.481079 300.720215,507.014038 302.964813,497.283447 
z"/>
</svg>