<svg xmlns="http://www.w3.org/2000/svg" xmlns:xlink="http://www.w3.org/1999/xlink" version="1.1" id="Layer_1" x="0px" y="0px" width="100%" viewBox="0 0 1024 1024" enable-background="new 0 0 1024 1024" xml:space="preserve">
<path fill="#ffffff" opacity="1.000000" stroke="none" d=" M789.979919,277.799469   C847.231262,278.906586 897.709839,297.211212 941.190613,333.919037   C943.291382,331.315460 942.663818,329.239014 942.670959,327.327148   C942.726685,312.494507 942.803040,297.660400 942.635803,282.829437   C942.591370,278.882507 944.013062,277.657166 947.874573,277.636047   C968.866394,277.521240 989.856812,277.175446 1010.848083,276.941284   C1018.293945,276.858215 1018.304077,276.899475 1018.303589,284.302948   C1018.294067,433.465118 1018.282227,582.627258 1018.269897,731.789429   C1018.269531,736.122498 1018.199585,740.456543 1018.272339,744.788330   C1018.325989,747.986328 1016.822876,749.228882 1013.698120,749.222290   C991.366150,749.175354 969.033813,749.160339 946.701965,749.239563   C943.382019,749.251343 942.474670,747.927551 942.507324,744.730286   C942.660706,729.732422 942.609497,714.732361 942.586975,699.733032   C942.583801,697.640015 943.058472,695.366577 941.284973,693.750427   C939.301331,693.194092 938.395935,694.619019 937.273926,695.519104   C904.108276,722.122192 866.853699,739.933655 824.636230,745.984619   C760.367188,755.196228 701.280579,741.148865 647.534668,704.653748   C626.679077,690.492065 609.651550,672.148865 592.101990,654.360779   C579.579529,641.668152 567.022644,629.009460 554.470276,616.346313   C553.665161,615.534058 552.900574,614.578308 551.277710,614.676331   C549.445435,616.660156 550.200989,619.270081 550.194824,621.617798   C550.091248,660.949585 550.057312,700.281677 550.001587,739.613647   C549.999023,741.446472 549.953369,743.279602 549.899353,745.111755   C549.816956,747.904419 548.597473,749.287476 545.567444,749.273376   C523.068604,749.168518 500.569397,749.146851 478.070282,749.153564   C474.977264,749.154541 473.575989,748.025574 473.583771,744.733154   C473.664215,710.734375 473.663971,676.735413 473.625732,642.736511   C473.623230,640.525513 474.507599,638.997803 475.978790,637.490234   C508.796783,603.859619 541.555481,570.170654 573.536682,535.739624   C576.606628,532.434448 578.664001,531.531433 582.336060,535.153442   C602.744324,555.283142 622.384521,576.159119 642.491455,596.579407   C655.583252,609.875122 667.819580,624.130188 682.323608,635.892822   C713.339966,661.046814 749.029236,673.273865 789.081177,672.981873   C864.995117,672.428345 927.851929,620.389282 941.643066,545.667908   C950.926453,495.369873 941.217346,449.096436 908.454041,409.077789   C883.328491,378.388367 850.290039,360.938324 811.081238,355.195099   C772.984192,349.614716 737.203979,356.481628 703.666870,375.314972   C685.530029,385.500031 671.128662,400.061584 656.999512,414.964417   C639.115295,433.827942 621.126953,452.592987 603.272034,471.484161   C570.311951,506.357086 537.599854,541.466309 504.442108,576.149902   C471.279724,610.838379 438.118744,645.546692 404.186035,679.475037   C368.378876,715.277527 324.865662,736.960205 274.941803,745.300842   C222.280518,754.098938 172.071686,746.051636 124.877525,721.110596   C77.721367,696.189636 44.188282,658.592651 23.348312,609.547852   C7.926534,573.254211 2.314377,535.255249 4.990427,496.195129   C9.513542,430.174957 35.618214,374.360260 86.389565,331.066101   C119.041359,303.223022 157.029968,286.557953 199.428757,280.735809   C267.469666,271.392670 329.366882,287.173096 384.539703,328.275024   C401.709259,341.065765 416.015259,357.007019 431.081940,372.088531   C443.449615,384.468353 455.784943,396.880524 468.162964,409.250000   C469.299194,410.385468 470.237457,411.928162 472.287872,411.946106   C474.476654,410.206451 473.641205,407.697388 473.644470,405.515228   C473.704773,365.183319 473.701324,324.851288 473.707062,284.519287   C473.708069,277.626923 473.699768,277.704468 480.508667,277.629089   C501.666534,277.394897 522.826416,277.213257 543.979065,276.732605   C548.699097,276.625336 550.070679,278.414124 550.065552,282.808258   C550.027527,315.473511 550.095825,348.139038 550.220764,380.804169   C550.232849,383.976929 548.716125,386.097168 546.692200,388.191071   C519.013306,416.826447 491.339935,445.467224 463.707062,474.147034   C457.484650,480.605194 451.422363,487.217682 445.410309,493.626953   C442.945679,493.560577 442.041382,491.745941 440.810211,490.486816   C413.315277,462.365784 385.619080,434.436676 358.438080,406.014984   C333.055878,379.474182 302.618958,362.372009 266.554169,356.008392   C176.874420,340.184509 101.104950,392.964844 83.305550,477.787170   C74.092758,521.690369 79.974480,563.525757 104.220810,601.606934   C129.726501,641.666077 166.649033,665.347412 213.778000,671.667542   C261.123322,678.016724 303.621826,665.515503 340.618408,635.282776   C356.392273,622.392700 369.592010,606.785828 383.676178,592.143616   C416.251923,558.277405 448.595734,524.187988 480.994659,490.152008   C526.146912,442.718384 571.207764,395.193512 617.135742,348.510010   C652.572632,312.490082 695.650879,290.704956 745.264648,281.601013   C759.892334,278.916901 774.626587,277.693237 789.979919,277.799469  z"/>
</svg>